<svg xmlns="http://www.w3.org/2000/svg" version="1.1" xmlns:xlink="http://www.w3.org/1999/xlink" width="2000" height="753" viewBox="0 0 2000 753"><svg xml:space="preserve" width="2000" height="753" data-version="2" data-id="lg_sAzbMcYuqyna7mvxse" viewBox="0 0 809 753" x="0" y="0"><rect width="100%" height="100%" fill="transparent"></rect><path fill="#ffeee4" d="M454.552 466.542C532.325 360.968 607.948 245.88 607.948 245.88c181.362-298.27 60.73-147.191 60.73-147.191S529.347 258.042 405.819 392.905c-11.831-19.94-20.519-35.825-20.519-35.825-27.22-65.363-31.44-159.436-93.99-256.902-62.716-97.465-73.14-92.666-73.14-92.666s-11.832 3.557 26.475 73.14 30.614 79.429-3.475 29.951c-34.088-49.477-62.053-68.176-16.713 6.95 45.258 75.292 19.444 71.734-20.932 9.101s-79.429-100.278-30.613 6.289c48.815 106.566 102.76 132.711 148.266 199.812 14.314 20.933 34.088 54.11 55.683 91.59a4790.53 4790.53 0 0 1-85.22 90.35C164.307 645.257 68.579 716.826 111.355 740.158c42.775 23.332 82.407-33.095 127.085-96.307a421.964 421.964 0 0 1 100.94-100.113l35.991 24.49c15.307-18.202 31.772-38.97 48.568-60.978 41.451 73.803 80.504 143.964 93.66 161.091 33.508 43.851 141.895 156.54 65.776-14.893-24.739-55.765-100.113-150.914-128.906-186.988"></path><path fill="#ffeee4" fill-rule="evenodd" d="M404.93 656.237a18.644 18.644 0 1 0 0 37.287 18.644 18.644 0 0 0 0-37.287m26.358 31.734c10.578 38.169 75.28 44.78 111.862 25.563-22.478-23.536-72.283-53.066-111.95-25.563m-162.902 27.15c39.139 16.308 100.668 11.107 111.863-27.238-39.756-27.062-91.06 1.498-111.95 27.238m278.112-67.17c-7.757.44-37.904 10.578-38.345 19.216-.264 4.937 18.247 17.63 20.804 19.129 26.885 16.131 70.96 7.933 92.645-4.76-18.423-11.195-42.224-35.525-75.104-33.497M303.47 665.58c-.881-5.906-27.767-17.102-40.02-17.63-33.144-1.323-56.328 22.919-73.429 35.171 20.627 6.612 54.653 18.953 81.45 9.609 7.758-2.733 33.233-18.952 32-27.15m274.85-23.977c32.528 29.177 92.118 6.787 113.45-17.63-36.847-18.864-98.2-22.038-113.45 17.63m-345.195 0c-14.632-39.491-79.246-37.552-113.449-16.044 23.096 22.038 80.922 45.662 113.45 16.044m266.83 0c12.34-13.575 27.59-32.968 25.563-51.127-43.546 9.08-82.95 22.39-83.037 75.104 27.326 2.556 44.075-9.344 57.473-23.977m-130.99 22.302c-1.235-52.009-40.814-65.672-86.3-73.43 13.664 38.522 34.027 78.807 86.3 73.43m271.678-65.496c31.381 17.454 59.59 4.143 79.864-11.195 10.578-7.933 27.062-18.07 25.563-27.15-45.485-12.694-96.26 0-105.427 38.345m-469.84 0c-9.432-38.874-60.823-50.862-107.102-38.345 14.545 25.828 62.763 62.058 107.102 38.345m410.691-65.495c-26.004 20.362-60.823 63.38-36.758 108.689 38.786-8.11 49.98-63.997 36.758-108.69m-314.783 108.69c23.712-45.574-10.226-89.737-38.346-108.69-9.96 48.043-.529 99.346 38.346 108.69m425.059-95.907c53.595 13.398 79.776-26.18 99.08-57.562-53.595-1.323-92.38 12.076-99.08 57.562m-572.094 0c-5.818-44.78-48.218-61.53-99.08-55.976 20.274 29.971 45.75 69.639 99.08 55.976m501.75 55.887c33.85-22.038 19.393-89.913-1.587-115.036-18.952 27.855-37.728 95.29 1.587 115.036m-433.08 0c41.43-17.454 23.27-89.649 1.674-115.036-18.688 27.767-33.144 90.442-1.675 115.036m489.056-49.54c27.503-36.76 1.499-90.354-22.39-113.45-17.63 35.701-16.748 103.4 22.39 113.45M154.85 438.681c-21.597 24.859-48.835 76.691-20.803 113.45 38.962-9.344 41.43-80.57 20.803-113.45m557.725 46.367c38.698 7.581 60.471-15.867 75.104-36.758 7.052-10.226 16.131-22.92 12.782-31.91-45.133 7.052-85.153 19.304-87.886 68.757m-613.7 0c-3.262-50.07-43.722-62.851-91.059-68.757 15.514 36.758 36.759 75.985 91.059 68.757m572.093-124.909c-14.368 44.428-5.377 101.813 35.172 110.188 22.743-44.957-9.696-88.415-35.172-110.188m-532.073 0c-23.448 23.272-56.769 65.407-33.585 110.188 40.196-7.67 51.039-68.757 33.497-110.188m594.483 63.909c44.075-7.67 61.088-50.775 59.061-99.08-32.616 18.51-72.9 44.339-59.06 99.08m-655.131 0c13.398-55.27-26.357-81.363-60.824-99.08 1.675 51.743 16.572 90.088 60.824 99.08m647.197-38.346c12.077-54.212-25.74-81.803-59.149-100.667 0 53.243 13.752 92.734 59.06 100.667m-581.525-100.49c-31.646 20.01-69.99 46.807-57.562 100.667 44.78-6.876 61.529-50.246 57.562-100.667m592.81 57.561c37.64-11.018 40.724-78.453 20.802-111.95-23.447 23.536-50.598 76.867-20.803 111.95m-661.566 0c29.266-35.26 3.967-91.94-23.977-111.95-13.75 39.139-14.456 99.874 23.977 111.95m629.656-55.975c.176-54.476-41.166-67.435-81.539-81.45 11.46 42.929 25.652 82.949 81.539 81.45M186.76 205.35c-38.963 14.81-80.217 27.327-79.864 81.451 55.093 2.38 72.988-40.99 79.864-81.45m528.9 52.713c31.645-23.448 19.128-92.91-4.76-115.036-19.394 30.148-33.498 95.29 4.848 115.036m-618.46 0c34.995-21.42 24.681-89.56 0-115.036-18.512 26.445-34.82 93.704 0 115.036m584.875-44.78c3.878-58.708-36.759-72.988-73.518-91.059 6.876 47.954 22.214 87.533 73.518 91.059m-552.877 0c-4.231-58.355 36.582-72.019 71.842-91.059-2.468 45.485-21.42 88.15-71.842 91.059"></path></svg></svg>